# xmcd
# 
# Track frame offsets:
#     150
#     13627
#     30172
#     42820
#     62257
#     78173
#     97437
#     117047
#     133594
#     151608
#     168543
#     183859
#     198009
#     212370
#     230803
# 
# Disc length: 3279
# 
# Revision: 1
# Processed by: cddbd v1.5.2PL0 Copyright (c) Steve Scherf et al.
# Submitted via: fre:ac v1.0.17
# 
DISCID=ad0ccd0f
DTITLE=Various Artist - The First 50 Years - story songs
DYEAR=2009
DGENRE=Country
TTITLE0=Kenny Rogers And The First Edition - Ruby, Don't Take Your Love To Town
TTITLE1=Kenny Rogers - Lucille
TTITLE2=Kenny Rogers And The First Edition - Reuben James
TTITLE3=Kenny Rogers - Sweet Music Man
TTITLE4=Kenny Rogers - The Gambler
TTITLE5=Kenny Rogers - Abraham, Martin And John - Precious Memories (Medley)
TTITLE6=Kenny Rogers - Coward Of The County
TTITLE7=Kenny Rogers - San Francisco Mabel Joy
TTITLE8=Kenny Rogers - Scarlet Fever
TTITLE9=Kenny Rogers - Twenty Years Ago
TTITLE10=Kenny Rogers - The Factory
TTITLE11=Kenny Rogers - Ol' Red
TTITLE12=Kenny Rogers - The Greatest
TTITLE13=Kenny Rogers - Harder Cards
TTITLE14=Kenny Rogers - Goodbye
EXTD=
EXTT0=
EXTT1=
EXTT2=
EXTT3=
EXTT4=
EXTT5=
EXTT6=
EXTT7=
EXTT8=
EXTT9=
EXTT10=
EXTT11=
EXTT12=
EXTT13=
EXTT14=
PLAYORDER=
